<svg xmlns="http://www.w3.org/2000/svg" viewBox="0 0 32 32" fill="none">
  <rect width="32" height="32" rx="8" fill="#f7faf8"/>
  <path d="M5.5 20.5 7 11.5" stroke="#a7f3d0" stroke-width="2" stroke-linecap="round"/>
  <path d="M8.5 21 10 12.5M9.2 12.3v2.4M10 12.3v2.4M10.8 12.3v2.4" stroke="#86efac" stroke-width="1.1" stroke-linecap="round"/>
  <path fill="#0f766e" d="M7 16.5h18v.3c0 6.2-3.8 10.5-9 10.5s-9-4.3-9-10.5v-.3Z"/>
  <path stroke="#5eead4" stroke-width="1.2" stroke-linecap="round" opacity="0.55" fill="none" d="M9.5 20.5q2.5 3.5 6.5 4"/>
  <path fill="#22c55e" d="M7.2 17.2c1-3.8 4.2-6.2 8.8-6.2s7.8 2.4 8.8 6.2c-1.8 1.4-4.5 2.1-8.8 2.1s-7-.7-8.8-2.1Z"/>
  <path fill="#4ade80" d="M8 16.5c1.2-2.8 3.6-4.5 7-4.3 2.8.2 5 1.8 6 4.3-1.5.9-3.8 1.4-6.5 1.4-2.9 0-5.3-.5-6.5-1.4Z"/>
  <path fill="#ef4444" d="M11.5 13.2a2.2 1.1 0 0 1 4.4 0z"/>
  <circle cx="12.5" cy="13.5" r="0.35" fill="#fde047"/>
  <circle cx="13.5" cy="13.5" r="0.35" fill="#fde047"/>
  <circle cx="14.2" cy="13.5" r="0.35" fill="#fde047"/>
  <path fill="#ef4444" d="M17 12.8a1.9 0.95 0 0 1 3.8 0z"/>
  <circle cx="18.5" cy="13.1" r="0.3" fill="#fde047"/>
  <circle cx="15.5" cy="15.8" r="0.9" fill="#facc15"/>
  <circle cx="19.5" cy="15.2" r="0.75" fill="#facc15"/>
  <circle cx="12" cy="16.2" r="0.65" fill="#facc15"/>
  <rect x="16.2" y="14.8" width="1.6" height="1.6" rx="0.25" fill="#fff"/>
  <rect x="13.8" y="15.5" width="1.4" height="1.4" rx="0.2" fill="#f8fafc"/>
  <rect x="18" y="16" width="1.3" height="1.3" rx="0.2" fill="#fff"/>
</svg>
